<?xml version="1.0" encoding="utf-8"?>
<!-- Generator: Adobe Illustrator 25.4.1, SVG Export Plug-In . SVG Version: 6.00 Build 0)  -->
<svg version="1.1" id="Layer_1" xmlns="http://www.w3.org/2000/svg" xmlns:xlink="http://www.w3.org/1999/xlink" x="0px" y="0px"
	 viewBox="0 0 1920 449.3" style="enable-background:new 0 0 1920 449.3;" xml:space="preserve">
<style type="text/css">
	.st0{fill:#F28720;}
	.st1{fill:#A8A9AC;}
</style>
<g id="_288752448">
	<path class="st0" d="M783.1,365.2h86.6c39,1.4,77-13,105.3-39.8c27.7-26.9,42.7-64.3,41.2-102.9c0.4-23.7-4.7-47.2-15-68.6h83.9
		c5,20.3,7.4,41.1,7.4,62c2,60.4-20.6,119.1-62.7,162.5c-42.1,42.8-100.1,66-160.1,64.1H412.3L218.1,241h111.2
		c25.3,0.9,50.4-5.7,72-18.9c21.6-13.4,34.2-37.4,33-62.8c0-55-34.9-82.6-104.9-82.6H77.1v365.6H0V0h317.2
		c57,0,102.7,12.4,137.7,36.9c39.8,28.3,60.4,69.7,60.4,124c0.6,35.3-11.9,69.6-35.2,96.2c-23.5,26-54.3,44.3-88.4,52.6l56.4,55.6
		L783.1,365.2L783.1,365.2z"/>
	<path class="st1" d="M1604.7,77.1l-230.3,372.3h-43.2c-75.7-124.1-151.3-248.4-226.9-372.7H783.1c-77.6-3-142.9,57.4-146,135
		c-0.1,3.7-0.1,7.5,0,11.2c-0.3,22.6,4.5,44.9,13.8,65.4h-80.6c-6.7-23.4-10.1-47.6-10-72c0.1-64.4,21-116.6,62.7-156.4
		C664.7,19.9,718.2,0,783.1,0h373.3L1354,328.5L1553.1,0h366.6v77.1H1604.7z M1919.6,442.2h-476l47.7-77.1H1920L1919.6,442.2z
		 M1919.6,256.6h-361.5l47.7-77.4h313.8L1919.6,256.6L1919.6,256.6z"/>
</g>
</svg>
