<?xml version="1.0" standalone="no"?>
<!DOCTYPE svg PUBLIC "-//W3C//DTD SVG 20010904//EN"
 "http://www.w3.org/TR/2001/REC-SVG-20010904/DTD/svg10.dtd">
<svg version="1.0" xmlns="http://www.w3.org/2000/svg"
 width="3840.000000pt" height="3840.000000pt" viewBox="0 0 3840.000000 3840.000000"
 preserveAspectRatio="xMidYMid meet">
<metadata>
Created by potrace 1.14, written by Peter Selinger 2001-2017
</metadata>
<g transform="translate(0.000000,3840.000000) scale(0.100000,-0.100000)"
fill="#000000" stroke="none">
<path d="M0 19265 l0 -4425 68 -1 c37 -1 70 -1 73 -1 17 2 301 4 417 3 6 0 80
0 162 0 83 0 157 0 165 0 8 0 116 0 240 0 124 0 233 0 243 0 130 -1 166 -1
170 4 3 3 5 1648 5 3657 l0 3653 2646 -2 c1455 -1 2671 -4 2701 -7 30 -2 87
-7 125 -11 39 -4 77 -7 85 -7 8 0 22 -2 30 -5 8 -3 33 -6 55 -8 22 -2 78 -11
125 -20 47 -9 95 -18 107 -20 12 -2 26 -6 31 -9 5 -3 27 -8 48 -12 22 -3 45
-11 52 -16 6 -6 12 -8 12 -5 0 9 190 -59 268 -95 37 -17 69 -32 72 -33 38 -14
70 -31 70 -37 0 -4 6 -8 13 -8 6 0 35 -16 62 -35 28 -19 58 -41 68 -48 42 -28
195 -160 196 -168 1 -4 17 -24 37 -45 42 -46 144 -196 144 -213 0 -6 5 -11 10
-11 6 0 10 -9 10 -20 0 -11 4 -20 8 -20 4 0 16 -21 26 -47 55 -146 75 -206 70
-214 -3 -5 -1 -9 4 -9 5 0 9 -6 9 -12 0 -7 3 -24 6 -38 20 -92 31 -154 43
-260 10 -82 12 -399 3 -440 -4 -19 -10 -55 -13 -80 -11 -93 -53 -232 -104
-340 -19 -41 -35 -78 -34 -82 1 -3 -5 -12 -13 -18 -8 -7 -15 -19 -15 -26 0 -8
-5 -14 -10 -14 -6 0 -9 -4 -8 -8 5 -15 -122 -180 -195 -254 -101 -104 -223
-195 -352 -265 -84 -45 -231 -115 -242 -116 -7 0 -13 -4 -13 -9 0 -4 -5 -8
-11 -8 -6 0 -55 -16 -108 -36 -53 -20 -103 -38 -111 -39 -8 -2 -15 -4 -15 -5
0 -1 -7 -3 -15 -5 -8 -2 -49 -12 -90 -24 -82 -22 -103 -27 -210 -45 -14 -3
-25 -5 -25 -6 0 -1 -16 -3 -35 -6 -19 -2 -53 -6 -75 -9 -93 -14 -208 -15
-1382 -16 -678 0 -1233 -2 -1233 -5 0 -3 38 -44 84 -92 47 -48 120 -124 163
-168 43 -45 152 -159 243 -253 91 -95 210 -219 265 -276 158 -163 482 -499
603 -625 124 -129 258 -268 491 -510 88 -91 200 -208 250 -260 342 -355 476
-494 546 -566 132 -137 397 -412 775 -805 258 -268 299 -311 385 -399 l73 -75
4739 1 c2606 1 4781 4 4833 8 95 6 145 11 230 22 25 4 59 7 75 9 36 3 130 19
285 50 14 3 36 7 50 10 14 2 77 18 140 35 63 17 122 32 130 34 9 1 20 4 25 8
9 4 22 9 80 24 75 19 403 147 486 189 27 13 49 21 49 17 0 -4 4 -2 8 3 4 6 57
35 117 65 61 30 112 57 115 61 5 6 49 31 87 48 26 12 270 168 283 181 3 3 34
25 70 49 36 25 72 53 81 63 9 10 21 18 27 18 6 0 15 6 19 13 4 6 26 25 48 41
22 16 47 37 56 45 9 9 27 25 40 35 55 44 197 176 260 241 63 65 88 92 173 185
25 27 152 184 199 245 61 80 257 369 257 379 0 2 23 42 50 89 28 47 50 90 50
95 0 6 3 12 8 14 9 4 192 378 192 393 0 2 5 16 12 32 6 15 12 30 13 33 1 3 6
16 12 30 24 58 93 259 93 272 0 8 3 18 7 22 4 3 8 12 10 19 1 7 16 62 33 122
43 151 48 173 42 179 -2 3 0 12 7 20 6 8 11 18 10 22 -1 5 0 11 1 14 3 8 8 31
14 70 4 19 11 58 16 85 6 28 12 64 14 80 3 17 7 41 10 55 5 25 16 120 21 175
2 17 6 64 10 105 12 133 14 181 14 405 1 278 -6 460 -24 635 -16 156 -32 278
-42 325 -2 11 -6 40 -10 65 -6 50 -11 75 -13 75 -2 0 -5 15 -13 60 -3 17 -8
41 -12 55 -3 14 -11 53 -17 88 l-13 62 -837 0 c-461 0 -838 -4 -838 -8 0 -5
13 -35 28 -68 16 -32 34 -75 41 -94 8 -19 19 -48 26 -65 7 -16 29 -79 48 -140
33 -102 45 -141 63 -220 4 -16 8 -32 9 -35 9 -31 34 -161 41 -215 3 -22 7 -46
9 -53 6 -18 18 -147 19 -209 1 -29 3 -53 6 -53 8 0 5 -495 -4 -508 -4 -7 -2
-12 4 -12 6 0 8 -5 3 -12 -9 -15 -10 -25 -18 -103 -3 -33 -7 -71 -9 -85 -7
-42 -16 -94 -19 -110 -6 -27 -29 -135 -32 -150 -2 -8 -4 -15 -5 -15 -1 0 -4
-11 -6 -25 -8 -43 -91 -282 -127 -365 -39 -91 -125 -260 -162 -320 -14 -22
-28 -47 -32 -55 -4 -8 -11 -19 -15 -25 -4 -5 -43 -59 -86 -120 -42 -60 -89
-123 -102 -139 -90 -106 -224 -242 -310 -316 -29 -25 -57 -50 -64 -55 -33 -31
-182 -137 -261 -187 -49 -32 -94 -61 -100 -65 -5 -4 -37 -21 -70 -38 -33 -16
-62 -32 -65 -35 -15 -16 -340 -157 -375 -164 -5 -1 -23 -6 -40 -12 -72 -26
-185 -59 -238 -70 -10 -2 -26 -5 -35 -8 -9 -3 -33 -8 -52 -11 -19 -3 -51 -10
-70 -15 -19 -5 -57 -12 -85 -15 -27 -3 -63 -7 -80 -10 -72 -12 -130 -16 -278
-20 -87 -2 -162 -7 -167 -10 -6 -4 -10 -2 -10 3 0 11 -50 10 -67 -1 -7 -5 -13
-5 -13 0 0 10 -1972 9 -1988 -1 -7 -4 -12 -3 -12 2 0 11 -50 10 -67 -1 -7 -5
-13 -4 -13 1 0 11 -50 10 -67 -1 -7 -5 -13 -4 -13 1 0 11 -50 10 -67 -1 -7 -5
-13 -5 -13 0 0 9 -2720 9 -2744 0 -9 -4 -16 -3 -16 1 0 9 -293 7 -309 -2 -6
-4 -11 -4 -11 1 0 10 -292 9 -309 -1 -6 -4 -11 -4 -11 1 0 10 -453 9 -469 -1
-6 -4 -11 -4 -11 1 0 10 -213 9 -229 -1 -6 -4 -11 -4 -11 1 0 10 -155 7 -171
-3 -7 -4 -10 -3 -7 2 4 5 -32 9 -83 9 -49 0 -89 -4 -89 -8 0 -5 -5 -5 -11 -1
-14 8 -344 8 -358 -1 -6 -3 -11 -3 -11 2 0 9 -200 9 -224 0 -9 -4 -16 -3 -16
1 0 4 -22 7 -50 7 -27 0 -50 -4 -50 -8 0 -5 -5 -5 -12 -1 -16 10 -68 11 -68 1
0 -5 -5 -5 -10 -2 -10 6 -111 9 -135 5 -5 -2 -14 -1 -20 0 -25 5 -355 1 -364
-5 -6 -3 -11 -3 -11 2 0 9 -200 9 -224 0 -9 -4 -16 -3 -16 1 0 4 -17 6 -38 4
-37 -4 -41 0 -307 263 -149 146 -402 396 -564 556 -161 159 -292 291 -290 293
3 3 130 37 189 51 8 2 15 4 15 4 0 2 139 51 156 55 39 10 255 104 363 157 181
91 449 253 500 304 9 9 16 14 16 10 0 -3 6 -1 13 5 6 6 24 20 38 33 15 12 42
33 60 47 18 14 52 41 74 60 23 20 49 42 58 50 74 63 300 296 355 365 85 108
203 282 248 365 10 19 21 37 24 40 5 5 101 202 125 255 7 17 20 46 29 67 9 20
16 42 16 50 0 8 3 18 7 22 4 3 8 12 10 19 1 7 16 53 33 102 18 50 33 99 35
110 5 28 13 60 15 60 1 0 3 7 5 15 1 8 11 51 20 95 9 44 19 96 22 115 6 48 11
75 13 75 1 0 3 18 5 40 1 22 6 69 10 105 10 88 11 450 1 580 -5 58 -9 117 -9
133 0 15 -3 27 -6 27 -3 0 -7 21 -7 48 -1 26 -5 63 -8 82 -4 19 -9 46 -11 60
-3 24 -10 59 -19 108 -3 13 -8 33 -12 44 -3 11 -7 30 -9 41 -1 12 -12 58 -24
102 -13 44 -24 85 -25 90 -2 6 -5 17 -8 25 -3 8 -21 58 -39 110 -34 99 -61
166 -85 212 -8 14 -14 33 -14 42 0 9 -4 16 -9 16 -5 0 -13 10 -17 23 -5 18
-88 171 -129 239 -24 39 -105 155 -124 177 -12 13 -21 27 -21 30 0 3 -10 18
-22 31 -13 14 -52 59 -88 100 -98 113 -207 219 -335 325 -33 28 -62 53 -65 56
-3 3 -36 27 -75 54 -38 27 -71 53 -73 57 -2 5 -10 8 -17 8 -8 0 -20 6 -27 13
-20 19 -97 67 -107 67 -5 0 -11 4 -13 8 -6 17 -253 146 -418 219 -63 28 -169
70 -235 93 -66 23 -129 46 -140 50 -24 10 -164 52 -185 56 -8 1 -42 10 -75 19
-33 9 -89 23 -125 31 -36 8 -74 17 -85 20 -11 3 -30 7 -42 9 -12 2 -36 6 -55
11 -18 4 -42 8 -53 9 -11 1 -38 6 -60 10 -22 4 -49 8 -60 10 -37 5 -120 17
-145 21 -14 2 -50 7 -80 10 -30 3 -71 7 -90 10 -19 2 -71 6 -115 9 -133 10
-140 10 -152 18 -6 4 -14 3 -17 -2 -3 -5 -24 -5 -48 0 -24 4 -1545 8 -3380 9
l-3338 0 0 -4425z"/>
<path d="M15276 23683 c-4 -4 -26 -8 -49 -10 -81 -5 -162 -12 -162 -13 0 -1
-22 -3 -48 -5 -27 -2 -60 -6 -75 -9 -15 -3 -54 -8 -87 -12 -33 -3 -69 -8 -80
-10 -11 -2 -58 -11 -105 -20 -47 -9 -94 -18 -105 -20 -52 -10 -143 -30 -150
-34 -6 -3 -5 -3 -60 -15 -22 -4 -44 -9 -50 -10 -67 -15 -395 -122 -460 -151
-22 -10 -48 -19 -58 -21 -10 -2 -28 -9 -40 -17 -12 -8 -31 -16 -42 -18 -11 -2
-23 -7 -26 -11 -3 -5 -12 -9 -20 -11 -35 -6 -312 -149 -456 -236 -32 -19 -62
-37 -68 -40 -14 -7 -69 -44 -75 -50 -7 -7 -42 -29 -60 -37 -8 -4 -17 -9 -20
-12 -11 -13 -76 -58 -84 -59 -5 0 -12 -5 -15 -10 -3 -5 -51 -44 -106 -87 -55
-42 -104 -82 -110 -89 -5 -6 -39 -36 -75 -66 -78 -66 -327 -314 -390 -390 -25
-29 -50 -58 -55 -64 -6 -6 -33 -40 -60 -76 -28 -36 -52 -67 -55 -70 -54 -54
-263 -382 -335 -525 -11 -22 -23 -41 -27 -43 -5 -2 -8 -9 -8 -17 0 -7 -11 -32
-24 -56 -27 -48 -143 -320 -152 -354 -1 -5 -8 -23 -15 -40 -6 -16 -13 -37 -15
-46 -2 -9 -9 -29 -15 -45 -7 -16 -13 -33 -15 -39 -1 -5 -18 -65 -38 -133 -20
-67 -38 -133 -40 -145 -10 -47 -15 -69 -20 -85 -3 -9 -8 -33 -11 -52 -3 -19
-10 -51 -15 -70 -4 -19 -11 -53 -14 -75 -3 -22 -8 -51 -11 -65 -3 -14 -7 -41
-10 -60 -2 -19 -7 -51 -10 -70 -6 -40 -12 -88 -20 -175 -3 -33 -8 -73 -10 -90
-14 -98 -27 -685 -15 -685 3 0 6 -42 7 -93 1 -50 5 -114 7 -142 3 -27 8 -75
11 -105 8 -78 13 -121 19 -155 2 -16 8 -52 12 -80 3 -27 8 -59 10 -70 3 -11 7
-36 10 -55 4 -29 19 -106 50 -250 3 -14 6 -27 7 -30 1 -6 47 -181 51 -195 13
-43 15 -43 114 -43 53 0 102 -1 107 -2 6 -1 15 -1 20 0 26 5 234 2 244 -4 6
-4 11 -4 11 1 0 9 181 8 204 0 8 -3 17 -3 20 0 8 9 231 7 245 -1 6 -4 11 -4
11 1 0 9 181 8 204 0 8 -3 17 -3 20 0 5 5 233 7 246 2 3 -1 10 0 15 1 6 2 44
2 86 2 l76 0 -33 81 c-19 45 -39 90 -44 99 -6 10 -10 27 -10 37 0 11 -4 23
-10 26 -5 3 -10 15 -10 26 0 10 -4 27 -9 37 -25 44 -105 358 -96 372 4 6 2 10
-2 10 -5 0 -10 12 -11 28 -1 15 -7 54 -13 87 -12 63 -12 69 -25 210 -17 177
-9 686 11 785 3 14 7 43 10 65 3 22 8 51 11 65 3 14 6 34 8 45 15 93 93 365
131 450 7 17 16 41 20 55 21 73 225 459 247 468 4 2 8 10 8 18 0 8 5 14 10 14
6 0 10 7 10 15 0 8 5 15 10 15 6 0 10 5 10 10 0 12 179 243 192 248 4 2 8 11
8 19 0 9 3 14 6 11 3 -3 26 17 52 45 68 74 131 135 203 197 34 30 71 63 81 73
10 9 20 17 23 17 3 0 33 22 68 49 137 108 377 248 555 324 34 14 64 27 67 27
3 0 30 11 60 25 31 13 59 25 63 26 4 1 12 3 17 5 117 36 185 56 205 59 14 2
25 4 25 5 0 1 7 3 15 5 8 2 38 8 65 15 28 6 61 14 75 16 14 2 48 9 75 14 54 9
132 19 210 27 28 3 1562 6 3410 7 2937 2 3362 0 3378 -12 9 -9 17 -19 17 -23
0 -8 71 -124 90 -146 5 -7 10 -15 10 -18 0 -3 23 -41 50 -85 28 -44 50 -82 50
-84 0 -3 17 -31 38 -63 21 -32 42 -65 46 -73 7 -16 21 -38 47 -80 64 -99 163
-266 160 -269 -1 -2 1 -7 6 -10 12 -8 48 -66 42 -67 -2 -1 3 -10 12 -20 9 -11
33 -48 54 -84 21 -36 41 -67 44 -70 3 -3 17 -25 30 -50 14 -25 42 -71 63 -103
21 -32 38 -60 38 -61 0 -2 25 -43 55 -92 31 -49 58 -97 61 -106 4 -10 10 -18
15 -18 5 0 9 -4 9 -9 0 -5 23 -47 51 -93 29 -46 74 -121 102 -168 28 -47 54
-86 59 -88 4 -2 8 -8 8 -14 0 -6 26 -52 58 -102 74 -118 91 -147 98 -168 4
-10 10 -18 15 -18 5 0 9 -7 9 -15 0 -8 5 -15 10 -15 6 0 10 -4 10 -9 0 -5 42
-78 93 -162 52 -85 100 -165 108 -178 8 -14 17 -30 22 -35 18 -26 53 -84 67
-111 8 -16 17 -32 20 -35 11 -11 70 -112 70 -119 0 -5 6 -14 14 -20 8 -7 27
-36 42 -64 15 -29 36 -65 48 -82 28 -40 45 -67 53 -85 3 -8 18 -33 32 -55 32
-50 41 -65 85 -140 20 -33 69 -114 110 -180 41 -66 99 -160 128 -209 29 -48
63 -105 76 -125 12 -20 30 -51 39 -68 9 -18 20 -33 25 -33 4 0 8 -4 8 -9 0
-12 111 -194 123 -202 5 -3 9 -10 9 -15 -1 -5 14 -31 31 -59 18 -27 34 -54 36
-60 2 -5 16 -28 30 -50 45 -69 51 -79 63 -105 7 -14 15 -27 18 -30 11 -9 70
-110 70 -119 0 -5 3 -11 8 -13 6 -3 78 -116 122 -193 35 -60 134 -221 162
-262 16 -24 26 -43 22 -43 -4 0 0 -8 8 -17 21 -24 98 -153 98 -164 0 -5 4 -9
8 -9 7 0 36 -47 66 -107 6 -13 14 -23 19 -23 4 0 7 -5 7 -10 0 -12 52 -94 63
-98 4 -2 7 -8 7 -13 0 -6 35 -67 78 -137 42 -70 82 -134 87 -144 6 -9 30 -50
55 -90 25 -40 47 -77 50 -83 3 -5 17 -29 33 -52 15 -24 27 -45 27 -47 0 -3 14
-25 30 -49 17 -25 30 -50 30 -56 0 -6 3 -11 8 -11 4 0 16 -17 27 -37 11 -21
23 -40 26 -43 3 -3 14 -18 23 -35 49 -88 187 -317 202 -335 6 -8 22 -33 35
-55 65 -115 83 -145 92 -145 4 0 7 -9 7 -19 0 -11 4 -21 8 -23 4 -1 42 -59 83
-128 42 -69 107 -176 145 -238 38 -62 79 -129 90 -150 l22 -37 435 -3 435 -2
18 27 c10 16 25 40 34 54 51 88 126 206 137 217 7 7 13 20 13 27 0 8 8 19 18
24 9 6 13 11 9 11 -4 0 5 19 21 43 16 23 37 58 47 77 10 19 21 37 24 40 10 8
71 111 71 120 0 5 4 10 8 12 7 3 159 246 221 352 13 23 27 43 30 46 4 3 10 12
14 20 4 8 17 31 29 51 13 20 40 65 62 100 21 35 49 80 61 99 12 19 41 67 65
105 24 39 53 86 65 105 37 57 146 233 158 255 7 11 17 23 22 27 7 5 7 8 0 8
-5 0 -1 7 10 16 11 8 18 16 15 17 -3 1 15 34 40 72 25 39 47 75 49 80 3 9 47
78 90 145 9 14 23 37 30 53 8 15 18 27 23 27 4 0 8 4 8 10 0 12 142 244 152
248 5 2 8 8 8 13 0 7 40 75 97 165 7 10 34 53 59 94 25 41 59 95 75 120 16 25
32 52 36 60 4 8 23 39 43 70 20 30 39 62 43 70 4 8 45 75 92 149 47 73 85 138
85 142 0 5 5 9 10 9 6 0 10 6 10 13 0 11 45 84 69 113 5 6 19 29 30 50 12 21
35 59 51 84 16 25 33 52 37 60 3 8 10 17 13 20 4 3 17 23 29 45 12 22 29 52
39 67 9 14 51 81 92 147 41 67 87 140 102 164 15 23 31 49 35 57 3 8 9 17 12
20 3 3 13 17 21 33 8 15 65 107 125 204 61 98 113 185 117 195 4 10 12 18 18
18 6 0 8 5 5 10 -3 6 -1 10 4 10 6 0 11 5 11 10 0 6 18 38 40 71 22 33 40 62
40 64 0 6 64 109 71 115 3 3 15 20 25 39 10 18 24 41 29 50 6 9 23 39 40 66
16 28 32 52 35 55 6 6 20 29 52 84 13 21 28 47 34 57 6 11 18 27 27 36 8 10
15 20 14 23 -1 5 15 33 62 105 14 22 32 52 41 66 57 96 75 124 82 127 4 2 8 9
8 17 0 7 7 18 15 25 8 7 12 16 9 21 -3 5 0 9 5 9 6 0 11 7 11 15 0 8 5 15 10
15 6 0 10 6 10 13 0 7 9 23 20 35 11 12 20 28 20 37 0 8 4 15 9 15 5 0 20 20
32 45 12 25 27 45 32 45 6 0 8 3 4 6 -3 4 5 21 18 39 14 17 25 37 25 43 0 7 5
12 10 12 6 0 10 5 10 11 0 6 10 25 23 42 12 18 27 41 33 52 21 39 39 70 44 75
3 3 19 27 35 54 17 27 38 60 47 75 10 14 22 35 27 47 5 11 15 27 23 35 7 8 24
34 37 59 14 25 32 56 42 70 23 34 139 221 139 225 0 2 20 34 45 72 25 37 45
73 45 80 0 6 4 13 9 15 10 4 111 166 111 179 0 5 4 9 8 9 5 0 16 15 26 33 9
17 22 41 29 52 72 119 94 154 114 181 l23 30 3132 0 c1723 -1 3140 0 3148 2
13 3 15 94 14 760 -1 416 -2 763 -3 770 -1 9 -741 12 -3665 12 l-3663 0 -72
-116 c-39 -64 -71 -120 -71 -125 0 -5 -4 -9 -10 -9 -5 0 -9 -3 -8 -7 1 -5 -15
-34 -35 -65 -20 -31 -37 -61 -37 -66 0 -4 -8 -17 -18 -28 -20 -21 -47 -66 -58
-96 -3 -10 -10 -18 -15 -18 -5 0 -9 -5 -9 -10 0 -8 -95 -171 -140 -240 -6 -8
-18 -30 -27 -47 -9 -18 -20 -33 -25 -33 -4 0 -8 -6 -8 -14 0 -8 -6 -21 -12
-28 -7 -7 -22 -29 -32 -48 -10 -19 -31 -53 -45 -75 -14 -22 -35 -57 -46 -77
-11 -21 -23 -38 -27 -38 -5 0 -8 -5 -8 -11 0 -7 -15 -35 -32 -63 -18 -28 -38
-60 -45 -71 -116 -195 -169 -281 -175 -283 -4 -2 -8 -7 -8 -11 0 -5 -25 -48
-55 -97 -30 -49 -59 -98 -65 -109 -5 -11 -24 -44 -42 -73 -18 -28 -70 -114
-116 -190 -46 -75 -107 -176 -136 -224 -29 -47 -56 -92 -60 -100 -4 -7 -27
-44 -51 -83 -25 -38 -50 -81 -57 -95 -7 -14 -15 -27 -18 -30 -3 -3 -39 -61
-80 -130 -41 -69 -77 -127 -80 -130 -4 -3 -10 -12 -13 -20 -4 -8 -21 -37 -37
-65 -17 -27 -34 -57 -37 -65 -4 -8 -9 -17 -12 -20 -12 -10 -101 -161 -101
-170 0 -6 -4 -10 -8 -10 -4 0 -20 -25 -36 -55 -15 -30 -31 -55 -34 -55 -4 0
-13 -15 -21 -32 -8 -18 -31 -58 -50 -88 -20 -30 -45 -72 -56 -92 -11 -21 -23
-38 -27 -38 -5 0 -8 -5 -8 -10 0 -10 -36 -73 -78 -136 -7 -10 -15 -27 -18 -36
-4 -10 -10 -18 -14 -18 -4 0 -10 -8 -13 -17 -4 -10 -16 -35 -29 -55 -13 -20
-51 -83 -85 -140 -35 -57 -67 -110 -73 -118 -32 -48 -190 -315 -190 -322 0 -4
-3 -8 -8 -8 -4 0 -13 -14 -20 -30 -8 -17 -19 -36 -25 -43 -13 -13 -38 -55 -59
-97 -7 -14 -15 -27 -18 -30 -3 -3 -11 -16 -19 -30 -8 -14 -36 -60 -63 -103
-26 -43 -48 -83 -48 -88 0 -5 -4 -9 -9 -9 -5 0 -13 -10 -17 -22 -4 -13 -17
-37 -30 -54 -13 -17 -24 -36 -24 -42 0 -6 -11 -23 -24 -39 -13 -15 -26 -38
-30 -50 -4 -13 -12 -23 -17 -23 -5 0 -9 -4 -9 -9 0 -5 -22 -46 -50 -90 -27
-44 -50 -85 -50 -91 0 -5 -3 -10 -8 -10 -4 0 -16 -17 -27 -37 -10 -21 -26 -46
-34 -55 -8 -10 -10 -18 -5 -18 5 0 4 -4 -2 -8 -6 -4 -49 -70 -95 -147 -46 -77
-87 -141 -91 -143 -5 -2 -8 -10 -8 -17 0 -8 -6 -20 -12 -27 -18 -19 -48 -69
-55 -90 -3 -10 -9 -18 -13 -18 -4 0 -10 -8 -14 -17 -3 -10 -15 -31 -26 -48
-11 -16 -24 -39 -30 -50 -5 -11 -25 -45 -44 -75 -19 -30 -58 -95 -87 -145 -29
-49 -56 -92 -59 -95 -4 -3 -9 -12 -13 -20 -4 -8 -32 -55 -63 -105 -31 -49 -64
-103 -72 -120 -9 -16 -24 -38 -33 -48 -17 -18 -17 -18 -24 5 -4 12 -11 25 -14
28 -14 11 -61 90 -54 90 5 0 3 4 -3 8 -7 5 -338 547 -439 720 -87 150 -111
188 -117 190 -4 2 -8 8 -8 13 0 5 -19 39 -42 76 -22 38 -49 82 -58 98 -21 37
-76 128 -105 175 -12 19 -39 64 -60 100 -21 36 -44 72 -51 80 -7 8 -13 20 -15
25 -1 6 -14 28 -29 50 -15 22 -27 42 -27 45 1 6 -34 62 -43 70 -4 3 -12 20
-19 38 -8 17 -17 32 -21 32 -4 0 -10 8 -13 18 -4 9 -18 35 -32 57 -13 22 -28
47 -31 55 -4 8 -13 22 -20 30 -10 13 -53 85 -125 210 -8 14 -16 27 -19 30 -5
5 -111 181 -136 225 -6 11 -25 43 -43 70 -17 28 -37 62 -43 78 -7 15 -16 27
-20 27 -4 0 -8 5 -8 10 0 6 -8 23 -19 38 -26 38 -116 186 -116 192 0 3 -13 25
-29 50 -16 25 -41 66 -57 91 -16 25 -29 51 -29 57 0 5 -3 12 -7 14 -6 2 -112
172 -168 269 -5 10 -34 57 -63 106 -29 48 -76 126 -104 173 -28 47 -59 99 -69
115 -10 17 -26 44 -35 60 -9 17 -20 32 -23 35 -3 3 -13 19 -22 35 -23 41 -146
248 -156 261 -10 13 -29 45 -54 94 -11 21 -27 44 -35 51 -8 6 -14 15 -14 20 0
5 -18 39 -40 75 -22 36 -40 70 -40 74 0 5 -3 10 -7 12 -10 4 -73 106 -73 117
0 5 -7 14 -15 21 -9 7 -13 15 -11 17 3 3 -4 14 -15 26 -10 11 -19 27 -19 34 0
7 -4 13 -10 13 -5 0 -10 6 -10 14 0 8 -6 21 -14 28 -7 8 -23 32 -35 54 -27 50
-50 89 -84 141 -15 24 -27 47 -27 53 0 5 -4 10 -9 10 -5 0 -11 8 -14 18 -4 9
-16 33 -29 53 -37 59 -123 203 -127 214 -2 5 -10 16 -18 23 -7 7 -13 20 -13
28 0 8 -4 14 -8 14 -4 0 -18 19 -30 43 -12 23 -47 82 -77 131 -30 49 -55 90
-55 92 0 4 -64 108 -70 114 -3 3 -16 25 -30 50 -13 25 -34 60 -47 78 -12 19
-25 42 -28 53 -4 10 -10 19 -15 19 -4 0 -10 8 -13 18 -4 9 -16 33 -29 53 -52
84 -108 181 -108 190 0 5 -3 9 -8 9 -4 0 -19 21 -32 48 -14 26 -27 49 -30 52
-3 3 -38 60 -79 128 l-73 122 -3923 0 c-2157 -1 -3925 -4 -3929 -7z"/>
<path d="M32067 20025 c-28 -44 -51 -83 -49 -87 1 -5 -2 -8 -8 -8 -5 0 -10 -7
-10 -15 0 -8 -4 -15 -9 -15 -5 0 -11 -8 -14 -17 -6 -18 -38 -74 -47 -83 -12
-10 -120 -192 -120 -201 0 -5 -3 -9 -8 -9 -4 0 -16 -17 -27 -37 -11 -21 -23
-40 -26 -43 -7 -6 -50 -79 -76 -127 -9 -18 -20 -33 -25 -33 -4 0 -8 -4 -8 -9
0 -6 -27 -54 -61 -108 -33 -54 -66 -107 -72 -118 -7 -10 -34 -56 -62 -100 -69
-112 -65 -106 -147 -240 -40 -66 -75 -122 -78 -125 -3 -3 -18 -25 -32 -50
l-26 -45 94 0 c52 0 94 3 94 8 0 4 6 5 13 0 6 -4 1589 -8 3516 -8 2857 0 3504
2 3509 13 2 7 5 355 6 772 1 669 -1 760 -14 761 -8 1 -1420 2 -3138 3 l-3123
1 -52 -80z"/>
<path d="M29800 16343 c-15 -22 -31 -51 -35 -62 -3 -12 -10 -21 -15 -21 -5 0
-12 -9 -15 -20 -3 -11 -13 -27 -22 -35 -8 -9 -16 -22 -17 -29 -1 -8 -8 -21
-14 -29 -20 -24 -182 -289 -182 -297 0 -4 -7 -10 -15 -14 -8 -3 -15 -10 -15
-16 0 -6 -23 -47 -51 -93 -29 -45 -63 -102 -77 -127 -14 -25 -28 -47 -32 -50
-4 -3 -22 -30 -39 -60 -18 -30 -55 -91 -82 -135 -28 -44 -64 -102 -80 -130
-51 -86 -54 -90 -59 -95 -3 -3 -22 -32 -41 -65 -20 -33 -58 -96 -86 -141 l-51
-81 4758 0 4758 0 4 26 c1 14 3 361 3 771 l0 745 -4283 0 -4284 0 -28 -42z"/>
</g>
</svg>
